<svg width="278" height="38" viewBox="0 0 278 38" fill="none" xmlns="http://www.w3.org/2000/svg">
<path d="M5.36286 16.1798L7.43947 17.2182C7.82172 17.3852 8.23767 17.4604 8.65414 17.4379C9.0706 17.4153 9.47601 17.2957 9.83796 17.0884L11.8004 15.8112C12.1381 15.5661 12.4129 15.2444 12.6024 14.8726C12.7919 14.5008 12.8907 14.0894 12.8906 13.6721L12.766 11.3305C12.7206 10.9166 12.5785 10.519 12.3513 10.17C12.124 9.82104 11.818 9.53029 11.4577 9.32126L9.38111 8.25691C8.99963 8.08796 8.58369 8.01123 8.16701 8.03288C7.75034 8.05453 7.34457 8.17394 6.98261 8.38152L5.02027 9.65874C4.68318 9.90447 4.40876 10.2262 4.21937 10.5979C4.02993 10.9695 3.93077 11.3807 3.92999 11.7978L4.05459 14.1394C4.09493 14.559 4.23463 14.9629 4.46212 15.3177C4.68962 15.6726 4.99841 15.9681 5.36286 16.1798Z" fill="#1C1C1C"/>
<path d="M17.89 19.212L15.8134 18.1476C15.432 17.9807 15.0169 17.9055 14.6013 17.9281C14.1857 17.9506 13.7811 18.0703 13.4201 18.2774L11.4369 19.5546C11.1011 19.8015 10.8275 20.1235 10.6382 20.4949C10.449 20.8663 10.3491 21.2769 10.3467 21.6937L10.4713 24.0353C10.5168 24.4493 10.6588 24.8468 10.886 25.1958C11.1133 25.5448 11.4194 25.8356 11.7795 26.0446L13.8562 27.083C14.2368 27.2519 14.6519 27.3286 15.0678 27.307C15.4836 27.2853 15.8884 27.1659 16.2495 26.9584L18.217 25.6811C18.553 25.4332 18.8265 25.1102 19.0158 24.738C19.205 24.3657 19.3049 23.9544 19.3073 23.5369L19.1827 21.2005C19.1351 20.7918 18.9936 20.3997 18.7694 20.0547C18.5451 19.7098 18.2441 19.4214 17.89 19.212Z" fill="#1C1C1C"/>
<path d="M24.2964 29.0871L22.2198 28.0487C21.8382 27.8797 21.4223 27.803 21.0057 27.8246C20.589 27.8463 20.1832 27.9657 19.8213 28.1733L17.8589 29.4505C17.5224 29.6968 17.2485 30.0187 17.0591 30.3902C16.8697 30.7618 16.7703 31.1726 16.7687 31.5896L16.8933 33.9312C16.943 34.3385 17.086 34.7289 17.3111 35.0719C17.5361 35.415 17.8373 35.7015 18.1912 35.9093L20.2678 36.9477C20.65 37.1146 21.066 37.1899 21.4824 37.1673C21.8989 37.1448 22.3043 37.0251 22.6663 36.8179L24.6338 35.5407C24.97 35.2944 25.2434 34.9724 25.4319 34.6007C25.6204 34.2291 25.7187 33.8183 25.7189 33.4016L25.6098 31.1016C25.565 30.6861 25.4227 30.287 25.1945 29.9369C24.9663 29.5869 24.6585 29.2957 24.2964 29.0871Z" fill="#1C1C1C"/>
<path d="M8.99693 23.272L8.89829 21.4496C8.90068 21.0328 9.00051 20.6223 9.18985 20.2509C9.37913 19.8794 9.65262 19.5574 9.98851 19.3106L13.8147 16.8236C14.1757 16.6165 14.5803 16.4968 14.9959 16.4743C15.4115 16.4517 15.8267 16.527 16.208 16.6938L17.8381 17.5245C18.2196 17.6935 18.6355 17.7703 19.0522 17.7486C19.4689 17.727 19.8746 17.6075 20.2366 17.3999L22.199 16.1175C22.5358 15.8715 22.8099 15.5497 22.9993 15.1781C23.1887 14.8065 23.288 14.3956 23.2892 13.9784L23.1646 11.6421C23.12 11.2272 22.9783 10.8286 22.751 10.4786C22.5237 10.1287 22.2172 9.83713 21.8564 9.62758L19.7797 8.56323C19.3975 8.39631 18.9816 8.32108 18.5651 8.34361C18.1486 8.36615 17.7432 8.48582 17.3813 8.69303L15.3773 9.94948C15.0412 10.1958 14.7678 10.5178 14.5793 10.8894C14.3908 11.2611 14.2925 11.6719 14.2923 12.0886L14.3857 13.9109C14.3856 14.3277 14.2872 14.7385 14.0987 15.1101C13.9102 15.4818 13.6368 15.8038 13.3007 16.05L9.47455 18.537C9.1126 18.7445 8.70688 18.864 8.29021 18.8857C7.87348 18.9073 7.45759 18.8305 7.07606 18.6616L5.45111 17.836C5.06959 17.6671 4.65369 17.5904 4.23697 17.612C3.8203 17.6337 3.41458 17.7531 3.05262 17.9607L1.09022 19.2379C0.753135 19.4836 0.478764 19.8054 0.289325 20.177C0.0998854 20.5487 0.00077873 20.9598 0 21.377L0.124596 23.7185C0.168828 24.1336 0.310401 24.5323 0.537686 24.8823C0.765024 25.2324 1.07169 25.5238 1.43286 25.733L3.50948 26.7714C3.89168 26.9384 4.30762 27.0136 4.72409 26.9911C5.14055 26.9685 5.54601 26.8488 5.90797 26.6416L7.87037 25.3644C8.20761 25.1269 8.48489 24.8143 8.68045 24.4511C8.87597 24.088 8.98431 23.6843 8.99693 23.272Z" fill="#1C1C1C"/>
<path d="M29.5503 21.5172C29.504 21.1028 29.3617 20.7049 29.1345 20.3551C28.9074 20.0054 28.6018 19.7135 28.242 19.5028L26.1654 18.4644C25.7831 18.2978 25.3671 18.2228 24.9508 18.2453C24.5344 18.2679 24.129 18.3873 23.7669 18.5942L21.8045 19.8714C21.468 20.1177 21.1941 20.4396 21.0047 20.8111C20.8154 21.1826 20.7158 21.5935 20.7143 22.0105L20.8129 23.838C20.8113 24.255 20.7118 24.6658 20.5225 25.0374C20.3331 25.4089 20.0592 25.7308 19.7226 25.9771L15.9017 28.4589C15.5397 28.6661 15.1343 28.7858 14.7178 28.8083C14.3014 28.8308 13.8854 28.7556 13.5032 28.5887L11.873 27.758C11.4917 27.591 11.0766 27.5158 10.661 27.5383C10.2453 27.5609 9.84082 27.6805 9.47974 27.8878L7.49658 29.1598C7.16074 29.4067 6.88725 29.7286 6.69791 30.1C6.50863 30.4714 6.4088 30.882 6.40641 31.2989L6.53095 33.6404C6.57643 34.0544 6.71847 34.4519 6.9457 34.8009C7.17299 35.1499 7.47903 35.4407 7.83927 35.6497L9.91588 36.7141C10.2965 36.883 10.7115 36.9597 11.1274 36.938C11.5433 36.9164 11.9481 36.7969 12.3092 36.5894L14.2767 35.3122C14.6123 35.065 14.8856 34.743 15.0749 34.3717C15.2642 34.0003 15.3641 33.5899 15.367 33.1732L15.2684 31.3455C15.2695 30.9285 15.3688 30.5175 15.5582 30.1459C15.7476 29.7743 16.0218 29.4525 16.3585 29.2065L20.1795 26.7196C20.5415 26.512 20.9472 26.3925 21.3639 26.3709C21.7806 26.3492 22.1965 26.426 22.578 26.5949L24.2029 27.4205C24.5845 27.5894 25.0004 27.6662 25.4171 27.6445C25.8338 27.6229 26.2395 27.5034 26.6014 27.2959L28.5691 26.0187C28.9049 25.772 29.178 25.45 29.3665 25.0784C29.555 24.7069 29.6535 24.2962 29.654 23.8796L29.5503 21.5172Z" fill="#1C1C1C"/>
<path d="M54.618 16.0156C54.4986 14.8991 53.9958 14.0298 53.1094 13.4077C52.2316 12.7855 51.0896 12.4744 49.6833 12.4744C48.6947 12.4744 47.8467 12.6236 47.1393 12.9219C46.4319 13.2202 45.8907 13.625 45.5157 14.1364C45.1407 14.6477 44.9489 15.2315 44.9404 15.8878C44.9404 16.4332 45.064 16.9062 45.3111 17.3068C45.5668 17.7074 45.912 18.0483 46.3467 18.3295C46.7813 18.6023 47.2629 18.8324 47.7913 19.0199C48.3197 19.2074 48.8523 19.3651 49.3893 19.4929L51.8438 20.1065C52.8325 20.3366 53.7827 20.6477 54.6947 21.0398C55.6151 21.4318 56.4376 21.9261 57.162 22.5227C57.895 23.1193 58.4745 23.8395 58.9006 24.6832C59.3268 25.527 59.5398 26.5156 59.5398 27.6491C59.5398 29.1832 59.1478 30.5341 58.3637 31.7017C57.5796 32.8608 56.4461 33.7685 54.9631 34.4247C53.4887 35.0724 51.7032 35.3963 49.6066 35.3963C47.5697 35.3963 45.8012 35.081 44.3012 34.4503C42.8097 33.8196 41.6421 32.8991 40.7984 31.6889C39.9631 30.4787 39.5114 29.0043 39.4432 27.2656H44.1094C44.1776 28.1776 44.4589 28.9361 44.9532 29.5412C45.4475 30.1463 46.091 30.598 46.8836 30.8963C47.6847 31.1946 48.5796 31.3438 49.5682 31.3438C50.5995 31.3438 51.5029 31.1903 52.2785 30.8835C53.0626 30.5682 53.6762 30.1335 54.1194 29.5795C54.5626 29.017 54.7884 28.3608 54.7969 27.6108C54.7884 26.929 54.5881 26.3665 54.1961 25.9233C53.804 25.4716 53.2543 25.0966 52.5469 24.7983C51.8481 24.4915 51.0299 24.2187 50.0924 23.9801L47.1137 23.2131C44.9575 22.6591 43.2529 21.8196 42.0001 20.6946C40.7557 19.5611 40.1336 18.0568 40.1336 16.1818C40.1336 14.6392 40.5512 13.2884 41.3864 12.1293C42.2302 10.9702 43.3765 10.071 44.8254 9.43182C46.2742 8.78409 47.9148 8.46023 49.7472 8.46023C51.6052 8.46023 53.233 8.78409 54.6307 9.43182C56.037 10.071 57.1407 10.9616 57.9418 12.1037C58.743 13.2372 59.1563 14.5412 59.1819 16.0156H54.618ZM68.5111 8.81818V35H63.7682V8.81818H68.5111ZM95.1627 8.81818V35H90.944L78.6073 17.1662H78.39V35H73.6471V8.81818H77.8914L90.2153 26.6648H90.4454V8.81818H95.1627ZM116.835 8.81818H121.578V25.9233C121.578 27.7983 121.135 29.4474 120.248 30.8707C119.37 32.294 118.135 33.4062 116.541 34.2074C114.947 35 113.085 35.3963 110.954 35.3963C108.815 35.3963 106.949 35 105.355 34.2074C103.761 33.4062 102.525 32.294 101.647 30.8707C100.77 29.4474 100.331 27.7983 100.331 25.9233V8.81818H105.074V25.527C105.074 26.6179 105.312 27.5895 105.789 28.4418C106.275 29.294 106.957 29.9631 107.835 30.4489C108.713 30.9261 109.753 31.1648 110.954 31.1648C112.156 31.1648 113.196 30.9261 114.074 30.4489C114.96 29.9631 115.642 29.294 116.119 28.4418C116.596 27.5895 116.835 26.6179 116.835 25.527V8.81818ZM140.962 16.0156C140.842 14.8991 140.34 14.0298 139.453 13.4077C138.575 12.7855 137.433 12.4744 136.027 12.4744C135.038 12.4744 134.19 12.6236 133.483 12.9219C132.776 13.2202 132.234 13.625 131.859 14.1364C131.484 14.6477 131.293 15.2315 131.284 15.8878C131.284 16.4332 131.408 16.9062 131.655 17.3068C131.911 17.7074 132.256 18.0483 132.69 18.3295C133.125 18.6023 133.607 18.8324 134.135 19.0199C134.663 19.2074 135.196 19.3651 135.733 19.4929L138.188 20.1065C139.176 20.3366 140.126 20.6477 141.038 21.0398C141.959 21.4318 142.781 21.9261 143.506 22.5227C144.239 23.1193 144.818 23.8395 145.244 24.6832C145.671 25.527 145.884 26.5156 145.884 27.6491C145.884 29.1832 145.492 30.5341 144.707 31.7017C143.923 32.8608 142.79 33.7685 141.307 34.4247C139.832 35.0724 138.047 35.3963 135.95 35.3963C133.913 35.3963 132.145 35.081 130.645 34.4503C129.153 33.8196 127.986 32.8991 127.142 31.6889C126.307 30.4787 125.855 29.0043 125.787 27.2656H130.453C130.521 28.1776 130.803 28.9361 131.297 29.5412C131.791 30.1463 132.435 30.598 133.227 30.8963C134.028 31.1946 134.923 31.3438 135.912 31.3438C136.943 31.3438 137.847 31.1903 138.622 30.8835C139.406 30.5682 140.02 30.1335 140.463 29.5795C140.906 29.017 141.132 28.3608 141.141 27.6108C141.132 26.929 140.932 26.3665 140.54 25.9233C140.148 25.4716 139.598 25.0966 138.891 24.7983C138.192 24.4915 137.374 24.2187 136.436 23.9801L133.457 23.2131C131.301 22.6591 129.597 21.8196 128.344 20.6946C127.099 19.5611 126.477 18.0568 126.477 16.1818C126.477 14.6392 126.895 13.2884 127.73 12.1293C128.574 10.9702 129.72 10.071 131.169 9.43182C132.618 8.78409 134.259 8.46023 136.091 8.46023C137.949 8.46023 139.577 8.78409 140.974 9.43182C142.381 10.071 143.484 10.9616 144.286 12.1037C145.087 13.2372 145.5 14.5412 145.526 16.0156H140.962ZM150.112 35V8.81818H154.855V31.0241H166.386V35H150.112ZM174.849 35H169.787L179.004 8.81818H184.859L194.089 35H189.027L182.034 14.1875H181.829L174.849 35ZM175.015 24.7344H188.822V28.544H175.015V24.7344ZM197.538 35V8.81818H207.56C209.452 8.81818 211.025 9.11648 212.278 9.71307C213.539 10.3011 214.481 11.1065 215.103 12.1293C215.734 13.152 216.049 14.3111 216.049 15.6065C216.049 16.6719 215.845 17.5838 215.435 18.3423C215.026 19.0923 214.477 19.7017 213.786 20.1705C213.096 20.6392 212.325 20.9759 211.472 21.1804V21.4361C212.401 21.4872 213.292 21.7727 214.144 22.2926C215.005 22.804 215.708 23.5284 216.254 24.4659C216.799 25.4034 217.072 26.5369 217.072 27.8665C217.072 29.2216 216.744 30.4403 216.087 31.5227C215.431 32.5966 214.443 33.4446 213.122 34.0668C211.8 34.6889 210.139 35 208.136 35H197.538ZM202.281 31.0369H207.381C209.103 31.0369 210.343 30.7088 211.102 30.0526C211.869 29.3878 212.252 28.5355 212.252 27.4957C212.252 26.7202 212.06 26.0213 211.677 25.3991C211.293 24.7685 210.748 24.2741 210.041 23.9162C209.333 23.5497 208.489 23.3665 207.509 23.3665H202.281V31.0369ZM202.281 19.9531H206.972C207.791 19.9531 208.528 19.804 209.184 19.5057C209.84 19.1989 210.356 18.7685 210.731 18.2145C211.114 17.652 211.306 16.9872 211.306 16.2202C211.306 15.206 210.948 14.3707 210.232 13.7145C209.525 13.0582 208.472 12.7301 207.075 12.7301H202.281V19.9531ZM235.427 16.0156C235.307 14.8991 234.804 14.0298 233.918 13.4077C233.04 12.7855 231.898 12.4744 230.492 12.4744C229.503 12.4744 228.655 12.6236 227.948 12.9219C227.24 13.2202 226.699 13.625 226.324 14.1364C225.949 14.6477 225.758 15.2315 225.749 15.8878C225.749 16.4332 225.873 16.9062 226.12 17.3068C226.375 17.7074 226.721 18.0483 227.155 18.3295C227.59 18.6023 228.071 18.8324 228.6 19.0199C229.128 19.2074 229.661 19.3651 230.198 19.4929L232.652 20.1065C233.641 20.3366 234.591 20.6477 235.503 21.0398C236.424 21.4318 237.246 21.9261 237.971 22.5227C238.704 23.1193 239.283 23.8395 239.709 24.6832C240.135 25.527 240.348 26.5156 240.348 27.6491C240.348 29.1832 239.956 30.5341 239.172 31.7017C238.388 32.8608 237.255 33.7685 235.772 34.4247C234.297 35.0724 232.512 35.3963 230.415 35.3963C228.378 35.3963 226.61 35.081 225.11 34.4503C223.618 33.8196 222.451 32.8991 221.607 31.6889C220.772 30.4787 220.32 29.0043 220.252 27.2656H224.918C224.986 28.1776 225.267 28.9361 225.762 29.5412C226.256 30.1463 226.9 30.598 227.692 30.8963C228.493 31.1946 229.388 31.3438 230.377 31.3438C231.408 31.3438 232.312 31.1903 233.087 30.8835C233.871 30.5682 234.485 30.1335 234.928 29.5795C235.371 29.017 235.597 28.3608 235.606 27.6108C235.597 26.929 235.397 26.3665 235.005 25.9233C234.613 25.4716 234.063 25.0966 233.356 24.7983C232.657 24.4915 231.838 24.2187 230.901 23.9801L227.922 23.2131C225.766 22.6591 224.062 21.8196 222.809 20.6946C221.564 19.5611 220.942 18.0568 220.942 16.1818C220.942 14.6392 221.36 13.2884 222.195 12.1293C223.039 10.9702 224.185 10.071 225.634 9.43182C227.083 8.78409 228.723 8.46023 230.556 8.46023C232.414 8.46023 234.042 8.78409 235.439 9.43182C236.846 10.071 237.949 10.9616 238.75 12.1037C239.552 13.2372 239.965 14.5412 239.99 16.0156H235.427Z" fill="#1C1C1C"/>
</svg>
